:SAMPLES-PER-SECOND 30
:FULLY-SPECIFIED
:DEGREES
293
root  -7.10783 39.6033 10.1213 -25.7721 -76.345 23.793
RightUpLeg  5.14587 13.3321 -0.917386
RightLeg  43.6001 0.486334 0.190944
RightFoot  37.9751 -8.75752 19.549
RightToes  -5.8209e-011 0 -3.6325e-017
Spine  -9.01349 23.8468 38.2386
Spine1  -2.76674 23.3679 -23.4564
HEad  22.6405 -58.5707 -12.5151
LeftShoulder1  2.57444 -7.61479 -16.4434
LeftArm  -67.2563 -32.0945 -8.49839
LeftForeArm  143.712 -81.379 -104.345
LeftHand  -0.246645 0.021 5.37786
RightShoulder  2.75713 11.3806 11.371
RightArm  114.349 54.7938 164.868
RightForeArm  47.8179 51.877 10.5405
RightHand  -0.24729 -0.0210522 -5.37781
LeftUpLeg  -7.92414 -8.19633 -9.38295
LeftLeg  44.5289 -69.3116 -43.8837
LeftFoot  8.2676 0.312194 -2.09866
LeftToes  -7.45818e-011 -3.37383e-011 1.08613e-011
294
root  -7.1103 39.6036 10.0867 -24.6291 -76.0165 22.7971
RightUpLeg  5.02846 13.4357 -0.750074
RightLeg  43.4531 1.01585 0.727245
RightFoot  38.0547 -8.99027 20.0106
RightToes  -5.8209e-011 0 -3.6325e-017
Spine  -8.96128 24.034 37.9766
Spine1  -2.96768 23.5826 -23.7522
HEad  23.0181 -58.9946 -12.9306
LeftShoulder1  2.42074 -7.28468 -15.6633
LeftArm  -67.7605 -31.7717 -8.0824
LeftForeArm  153.029 -80.9536 -113.115
LeftHand  -0.246645 0.021 5.37786
RightShoulder  2.71681 11.2685 11.2249
RightArm  113.788 54.7132 165
RightForeArm  48.0818 53.0733 11.0615
RightHand  -0.24729 -0.0210522 -5.37781
LeftUpLeg  -7.99068 -8.34872 -9.27457
LeftLeg  44.1746 -69.3289 -43.4741
LeftFoot  8.20599 0.35598 -2.35736
LeftToes  -7.45818e-011 -3.37383e-011 1.08613e-011
295
root  -7.1108 39.6084 10.0545 -23.5553 -75.6237 21.8527
RightUpLeg  4.98971 13.4568 -0.596593
RightLeg  43.2429 1.36534 1.07372
RightFoot  38.084 -9.26509 20.5815
RightToes  -5.8209e-011 0 -3.6325e-017
Spine  -8.92178 24.2322 37.7437
Spine1  -3.12245 23.8147 -24.1248
HEad  23.4216 -59.4329 -13.3398
LeftShoulder1  2.33204 -7.12867 -15.11
LeftArm  -68.2213 -31.6171 -7.59624
LeftForeArm  160.219 -80.4316 -119.926
LeftHand  -0.246645 0.021 5.37786
RightShoulder  2.6934 11.1631 11.1947
RightArm  113.135 54.686 164.942
RightForeArm  48.5795 54.1382 11.5321
RightHand  -0.24729 -0.0210522 -5.37781
LeftUpLeg  -8.11237 -8.53676 -9.19271
LeftLeg  44.1689 -69.3309 -43.4165
LeftFoot  8.07148 0.342872 -2.29223
LeftToes  -7.45818e-011 -3.37383e-011 1.08613e-011
296
root  -7.11075 39.6191 10.0288 -22.4229 -75.1632 20.8245
RightUpLeg  5.00383 13.4088 -0.415618
RightLeg  42.9954 1.61607 1.31423
RightFoot  38.1471 -9.49607 21.0427
RightToes  -5.8209e-011 0 -3.6325e-017
Spine  -9.03722 24.367 37.4641
Spine1  -3.11794 23.9543 -24.3105
HEad  23.7176 -59.6638 -13.7279
LeftShoulder1  2.26245 -6.97489 -14.7344
LeftArm  -68.7592 -31.5048 -7.18292
LeftForeArm  165.273 -79.9297 -124.77
LeftHand  -0.246645 0.021 5.37786
RightShoulder  2.65476 11.1098 10.9752
RightArm  112.487 54.7468 164.979
RightForeArm  49.1029 55.0314 11.9393
RightHand  -0.24729 -0.0210522 -5.37781
LeftUpLeg  -8.26225 -8.69763 -9.10638
LeftLeg  44.5733 -69.3523 -43.8031
LeftFoot  7.97856 0.278559 -1.92262
LeftToes  -7.45818e-011 -3.37383e-011 1.08613e-011
297
root  -7.11372 39.6317 10.0138 -21.2665 -74.7132 19.746
RightUpLeg  5.02792 13.2752 -0.233339
RightLeg  42.7598 1.87884 1.56289
RightFoot  38.2651 -9.61697 21.2444
RightToes  -5.8209e-011 0 -3.6325e-017
Spine  -9.27133 24.4617 37.1978
Spine1  -2.98416 24.0397 -24.353
HEad  23.9237 -59.7169 -14.1013
LeftShoulder1  2.18595 -6.77009 -14.3896
LeftArm  -69.204 -31.469 -6.93933
LeftForeArm  168.906 -79.5454 -127.941
LeftHand  -0.246645 0.021 5.37786
RightShoulder  2.60905 11.0602 10.695
RightArm  112.092 54.8379 165.138
RightForeArm  49.4434 55.7428 12.2841
RightHand  -0.24729 -0.0210522 -5.37781
LeftUpLeg  -8.3601 -8.77615 -8.99813
LeftLeg  45.1196 -69.4892 -44.3677
LeftFoot  7.97918 0.231763 -1.64758
LeftToes  -7.45818e-011 -3.37383e-011 1.08613e-011
298
root  -7.1208 39.6414 10.0052 -20.3426 -74.3416 18.8806
RightUpLeg  5.04544 13.0962 -0.101198
RightLeg  42.578 2.13331 1.8027
RightFoot  38.3793 -9.62712 21.2134
RightToes  -5.8209e-011 0 -3.6325e-017
Spine  -9.4416 24.5739 37.0276
Spine1  -2.87828 24.1744 -24.5424
HEad  24.0891 -59.7947 -14.3696
LeftShoulder1  2.11465 -6.612 -13.9808
LeftArm  -69.4467 -31.5853 -6.78315
LeftForeArm  171.523 -79.3096 -129.819
LeftHand  -0.246645 0.021 5.37786
RightShoulder  2.61039 11.0078 10.7778
RightArm  112.052 54.8994 165.197
RightForeArm  49.6127 56.2611 12.5504
RightHand  -0.24729 -0.0210522 -5.37781
LeftUpLeg  -8.38619 -8.69428 -8.90387
LeftLeg  45.6993 -69.7725 -44.9921
LeftFoot  8.03902 0.232891 -1.65106
LeftToes  -7.45818e-011 -3.37383e-011 1.08613e-011
299
root  -7.13044 39.6461 9.9948 -19.7586 -74.0315 18.3551
RightUpLeg  5.05805 12.9365 -0.0184302
RightLeg  42.4563 2.27786 1.93619
RightFoot  38.4247 -9.59644 21.1281
RightToes  -5.8209e-011 0 -3.6325e-017
Spine  -9.5156 24.6806 36.8415
Spine1  -2.86 24.326 -24.8407
HEad  24.1602 -59.9041 -14.4476
LeftShoulder1  2.05894 -6.51911 -13.5823
LeftArm  -69.6492 -31.7632 -6.59325
LeftForeArm  173.11 -79.1689 -130.889
LeftHand  -0.246645 0.021 5.37786
RightShoulder  2.65617 11.0079 11.1285
RightArm  112.145 54.9464 165.136
RightForeArm  49.7052 56.6141 12.7385
RightHand  -0.24729 -0.0210522 -5.37781
LeftUpLeg  -8.40579 -8.48239 -8.85174
LeftLeg  46.3999 -70.1012 -45.7552
LeftFoot  8.09449 0.248594 -1.74003
LeftToes  -7.45818e-011 -3.37383e-011 1.08613e-011
